<?xml version="1.0" encoding="UTF-8"?>
<svg xmlns="http://www.w3.org/2000/svg" viewBox="0 0 192 192" width="192" height="192">
  <!-- Fond circulaire -->
  <circle cx="96" cy="96" r="96" fill="#000000"/>
  
  <!-- Logo TikTok stylisé -->
  <g transform="translate(38, 38) scale(0.23)">
    <!-- Note de musique stylisée -->
    <path d="M355.904 132.214L355.904 211.712C355.904 211.712 318.264 196.855 289.357 212.276C260.45 227.696 254.7 264.866 269.556 294.9C284.413 324.935 328.636 336.415 355.904 309.756V388.69C355.904 388.69 299.144 414.22 242.384 388.69C185.624 363.16 174.144 293.772 196.54 244.034C218.935 194.295 275.695 169.33 355.904 211.712V132.214Z" fill="#FF0050"/>
    
    <!-- Lettre P stylisée pour PayOol -->
    <path d="M120 150 L120 350 L170 350 L170 270 L200 270 Q260 270 260 210 Q260 150 200 150 Z M170 200 L200 200 Q210 200 210 220 Q210 240 200 240 L170 240 Z" fill="#00F2EA"/>
  </g>
  
  <!-- Pièce de monnaie (coin) -->
  <circle cx="132" cy="132" r="30" fill="#FFD700" stroke="#FFA500" stroke-width="3"/>
  <text x="132" y="142" font-family="Arial" font-size="26" font-weight="bold" text-anchor="middle" fill="#000000">$</text>
</svg>
